<mxfile host="app.diagrams.net" modified="2024-05-07T20:46:38.403Z" agent="Mozilla/5.0 (Windows NT 10.0; Win64; x64) AppleWebKit/537.36 (KHTML, like Gecko) Chrome/124.0.0.0 Safari/537.36 Edg/124.0.0.0" version="23.1.5" etag="FfonzBocqiMt6c9H6tWN" type="github">
  <diagram name="Page-1" id="0y5NOaOPP9s0cOsPn7sN">
    <mxGraphModel>
      <root>
        <mxCell id="0" />
        <mxCell id="1" parent="0" />
      </root>
    </mxGraphModel>
  </diagram>
</mxfile>
